<svg width="64" height="64" viewBox="0 0 64 64" fill="none" xmlns="http://www.w3.org/2000/svg">
<circle cx="32" cy="32" r="32" fill="white"/>
<path d="M19.871 9.14453C18.1015 9.48437 16.9179 10.1055 15.6523 11.3711C15.0077 12.0039 14.5741 12.5781 14.2812 13.1406C14.0351 13.5977 12.8984 16.6562 11.7499 19.9492L9.66399 25.9258L8.5507 27.0273C7.6718 27.8945 7.33195 28.3281 6.95695 29.0664C6.00774 30.918 6.04289 30.4961 6.04289 39.7305V47.9336L6.34758 48.5898C6.95695 49.8906 7.96477 50.6641 9.38274 50.9336C11.0585 51.2383 12.7109 50.3828 13.578 48.7539C13.871 48.2031 13.8945 48.0508 13.9296 46.3047L13.9765 44.4531L15.1601 44.5234C23.5155 45.0273 40.9882 45.0273 48.8984 44.5234L50.0234 44.4531L50.0702 46.3047C50.1054 48.0508 50.1288 48.2031 50.4218 48.7539C51.0077 49.8555 51.8984 50.5703 53.0937 50.875C54.9218 51.3437 56.7968 50.3945 57.6523 48.5898L57.957 47.9336V39.7305C57.957 30.4961 57.9921 30.918 57.0429 29.0664C56.6679 28.3281 56.328 27.8945 55.4609 27.0273L54.3476 25.9375L52.2616 19.9609C51.1132 16.6797 49.9648 13.6094 49.7304 13.1523C49.0741 11.8984 47.703 10.5508 46.414 9.92968C44.457 8.96875 45.4296 9.03906 32.3515 9.0039C23.0468 8.99218 20.5273 9.01562 19.871 9.14453ZM44.164 13.2695C44.9609 13.5977 45.746 14.2422 46.121 14.8633C46.4843 15.4961 48.8749 22.3047 48.8749 22.7266C48.8749 23.1367 48.5937 23.6641 48.2655 23.8984C47.9257 24.1445 47.3984 24.1328 45.4179 23.8633C41.328 23.2891 37.1327 23.0312 31.9999 23.0312C26.8671 23.0312 22.6718 23.2891 18.582 23.8633C16.6015 24.1328 16.0741 24.1445 15.7343 23.8984C15.4062 23.6641 15.1249 23.1367 15.1249 22.7266C15.1249 22.293 17.5155 15.4961 17.8905 14.8516C18.4062 13.9727 19.5546 13.2344 20.7499 13.0352C20.914 13 26.1054 12.9883 32.2929 13L43.5429 13.0117L44.164 13.2695ZM15.957 31.1758C17.1757 31.5977 17.9491 32.6875 17.9491 33.9883C17.9491 34.8437 17.7616 35.3594 17.2226 35.9805C16.121 37.2344 14.1523 37.3047 12.9218 36.1211C11.0234 34.3047 12.3359 31.0352 14.9609 31C15.2187 31 15.6757 31.082 15.957 31.1758ZM38.914 31.2578C39.6523 31.6328 39.9921 32.2539 39.9335 33.1211C39.8866 33.9062 39.5702 34.4219 38.914 34.75C38.4687 34.9727 38.1991 34.9844 31.9999 34.9844C25.8007 34.9844 25.5312 34.9727 25.0859 34.75C24.4296 34.4219 24.1132 33.9062 24.0663 33.1211C24.0077 32.2539 24.3476 31.6328 25.0859 31.2578L25.6015 31H31.9999H38.3984L38.914 31.2578ZM50.3515 31.3281C51.3241 31.8203 51.9452 32.8281 51.957 33.9297C51.9687 34.7734 51.7577 35.3828 51.2304 35.957C50.0351 37.293 47.9374 37.3047 46.7773 35.9805C46.2382 35.3594 46.0507 34.8437 46.0507 33.9766C46.0507 32.7227 46.8359 31.6094 48.0077 31.1641C48.6171 30.9414 49.7421 31.0234 50.3515 31.3281Z" fill="#4529E6"/>
</svg>
